<svg width="1440" height="683" viewBox="0 0 1440 683" fill="none" xmlns="http://www.w3.org/2000/svg">
<mask id="mask0_1_533" style="mask-type:luminance" maskUnits="userSpaceOnUse" x="0" y="0" width="1440" height="683">
<path d="M1440 0H0V683H1440V0Z" fill="white"/>
</mask>
<g mask="url(#mask0_1_533)">
<path d="M1440 0H0V683H1440V0Z" fill="#1F306E"/>
<path d="M1464 683H0V382.834C45.8867 341.228 85.8867 348.407 120 404.373C147.58 340.439 187.58 325.291 240 358.929C305.467 341.211 345.467 372.276 360 452.122C367.6 402.848 391.6 382.846 432 392.115C476.927 349.338 516.927 355.351 552 410.154C604.293 376.361 644.293 391.355 672 455.134C673.44 398.348 697.44 370.832 744 372.589C777.027 315.298 817.027 306.793 864 347.074C905.773 339.479 929.773 361.157 936 412.105C956.447 378.5 980.447 374.162 1008 399.092C1043.71 384.106 1067.71 398.388 1080 441.938C1080.47 383.972 1104.47 355.274 1152 355.843C1177.76 328.718 1201.76 330.865 1224 362.283C1268.29 318.733 1308.29 323.966 1344 377.98C1395.38 343.073 1435.38 356.949 1464 419.606V683Z" fill="#553772"/>
<path d="M1512 683H-7.49528e-06V545.912C-2.44667 484.385 21.5533 452.13 72 449.146C118.34 408.092 158.34 415.829 192 472.355C243.7 437.84 283.7 452.105 312 515.153C343.793 456.35 383.793 446.336 432 485.113C460.64 422.472 500.64 408.613 552 443.535C615.98 423.997 655.98 453.248 672 531.289C704.727 473.624 744.727 464.749 792 504.664C813.08 432.802 853.08 409.727 912 435.437C943.92 415.825 967.92 425.489 984 464.428C1020.59 411.479 1060.59 407.312 1104 451.926C1137.19 433.851 1161.19 445.052 1176 485.528C1230.73 454.703 1270.73 472.669 1296 539.424C1316.21 505.534 1340.21 500.915 1368 525.569C1372.87 472.961 1396.87 449.625 1440 455.561C1456.28 416.874 1480.28 407.462 1512 427.326V683Z" fill="#8F3B76"/>
<path d="M1464 683H0V549.595C41.4133 541.562 65.4133 562.796 72 613.297C103.86 554.584 143.86 544.656 192 583.514C225.113 526.329 265.113 517.925 312 558.304C355.913 553.319 379.913 577.603 384 631.153C401.633 594.117 425.633 586.351 456 607.858C486.74 547.778 526.74 536.484 576 573.976C592.253 535.265 616.253 525.821 648 545.644C664.92 507.737 688.92 499.102 720 519.739C758.98 508.737 782.98 527.004 792 574.537C810.78 538.899 834.78 532.533 864 555.438C893.393 493.716 933.393 480.779 984 516.629C1022.12 504.578 1046.12 521.804 1056 568.305C1094.51 556.726 1118.51 574.419 1128 621.384C1128.15 563.028 1152.15 533.939 1200 534.118C1234.35 478.429 1274.35 471.53 1320 513.421C1363.27 507.656 1387.27 531.159 1392 583.928C1426.93 567.992 1450.93 581.327 1464 623.933V683Z" fill="#C7417B"/>
<path d="M1488 683H0V635.714C25.18 607.882 49.18 609.326 72 640.044C125.1 607.236 165.1 623.213 192 687.976C210.007 651.395 234.007 644.085 264 666.047C279.353 626.23 303.353 615.684 336 634.409C356.227 600.536 380.227 595.934 408 620.603C468.327 596.609 508.327 621.4 528 694.977C572.32 651.46 612.32 656.725 648 710.771C650.86 655.717 674.86 629.929 720 633.409C737.673 596.422 761.673 588.705 792 610.261C829.253 597.162 853.253 613.33 864 658.766C910.18 617.517 950.18 625.059 984 681.39C995.707 637.125 1019.71 622.136 1056 636.422C1088.94 618.054 1112.94 628.962 1128 669.145C1150.48 598.991 1190.48 577.623 1248 605.04C1296.81 567.004 1336.81 577.757 1368 637.3C1422.13 605.744 1462.13 622.977 1488 689.001V683Z" fill="#F5487F"/>
</g>
</svg>
