<svg width="1440" height="1600" viewBox="0 0 1440 1600" fill="none" xmlns="http://www.w3.org/2000/svg">
<rect width="1792" height="1600" transform="translate(-176)" fill="#1F306E"/>
<mask id="mask0_53_3" style="mask-type:luminance" maskUnits="userSpaceOnUse" x="-176" y="750" width="1793" height="850">
<path d="M1616 750H-176V1600H1616V750Z" fill="white"/>
</mask>
<g mask="url(#mask0_53_3)">
<path d="M1645.87 1600H-176V1226.44C-118.897 1174.66 -69.1188 1183.6 -26.6667 1253.25C7.65512 1173.68 57.4329 1154.83 122.667 1196.69C204.136 1174.64 253.914 1213.3 272 1312.67C281.458 1251.35 311.324 1226.46 361.6 1237.99C417.509 1184.75 467.287 1192.24 510.933 1260.44C576.01 1218.39 625.787 1237.04 660.267 1316.42C662.059 1245.75 691.925 1211.5 749.867 1213.69C790.967 1142.39 840.744 1131.81 899.2 1181.94C951.185 1172.49 981.051 1199.46 988.8 1262.87C1014.24 1221.05 1044.11 1215.65 1078.4 1246.67C1122.84 1228.02 1152.71 1245.8 1168 1300C1168.58 1227.86 1198.45 1192.14 1257.6 1192.85C1289.66 1159.09 1319.52 1161.76 1347.2 1200.86C1402.31 1146.67 1452.09 1153.18 1496.53 1220.4C1560.47 1176.96 1610.25 1194.23 1645.87 1272.2V1600Z" fill="#553772"/>
<path d="M1705.6 1600H-176V1429.39C-179.045 1352.82 -149.178 1312.68 -86.4001 1308.97C-28.7325 1257.87 21.0453 1267.5 62.9333 1337.85C127.271 1294.9 177.049 1312.65 212.267 1391.11C251.832 1317.93 301.609 1305.47 361.6 1353.73C397.241 1275.77 447.019 1258.52 510.933 1301.98C590.553 1277.67 640.331 1314.07 660.267 1411.19C700.993 1339.43 750.771 1328.38 809.6 1378.06C835.833 1288.63 885.611 1259.91 958.933 1291.91C998.656 1267.5 1028.52 1279.52 1048.53 1327.98C1094.06 1262.09 1143.84 1256.9 1197.87 1312.43C1239.17 1289.93 1269.03 1303.87 1287.47 1354.24C1355.58 1315.88 1405.36 1338.24 1436.8 1421.32C1461.95 1379.14 1491.82 1373.39 1526.4 1404.08C1532.46 1338.6 1562.32 1309.56 1616 1316.95C1636.26 1268.8 1666.13 1257.09 1705.6 1281.81V1600Z" fill="#8F3B76"/>
<path d="M1645.87 1600H-176V1433.98C-124.463 1423.98 -94.5967 1450.41 -86.4 1513.25C-46.752 1440.18 3.02579 1427.83 62.9333 1476.19C104.141 1405.02 153.919 1394.56 212.267 1444.81C266.914 1438.61 296.781 1468.83 301.867 1535.48C323.81 1489.38 353.677 1479.72 391.467 1506.48C429.721 1431.72 479.499 1417.66 540.8 1464.32C561.026 1416.14 590.893 1404.39 630.4 1429.06C651.456 1381.88 681.323 1371.14 720 1396.82C768.508 1383.13 798.375 1405.86 809.6 1465.02C832.971 1420.67 862.837 1412.74 899.2 1441.25C935.778 1364.43 985.556 1348.33 1048.53 1392.95C1095.97 1377.95 1125.84 1399.39 1138.13 1457.26C1186.05 1442.85 1215.92 1464.87 1227.73 1523.32C1227.92 1450.69 1257.79 1414.49 1317.33 1414.72C1360.08 1345.41 1409.85 1336.82 1466.67 1388.96C1520.51 1381.78 1550.38 1411.03 1556.27 1476.7C1599.74 1456.87 1629.61 1473.47 1645.87 1526.49V1600Z" fill="#C7417B"/>
<path d="M1675.73 1600H-176V1541.15C-144.665 1506.52 -114.798 1508.31 -86.4 1546.54C-20.32 1505.71 29.4578 1525.59 62.9333 1606.19C85.3416 1560.67 115.208 1551.57 152.533 1578.9C171.64 1529.35 201.506 1516.22 242.133 1539.53C267.304 1497.37 297.171 1491.65 331.733 1522.35C406.806 1492.49 456.584 1523.34 481.067 1614.91C536.22 1560.75 585.998 1567.3 630.4 1634.56C633.959 1566.05 663.826 1533.95 720 1538.28C741.993 1492.25 771.86 1482.65 809.6 1509.48C855.96 1493.17 885.826 1513.29 899.2 1569.84C956.668 1518.51 1006.45 1527.89 1048.53 1598C1063.1 1542.91 1092.97 1524.25 1138.13 1542.03C1179.13 1519.17 1208.99 1532.75 1227.73 1582.76C1255.71 1495.45 1305.49 1468.86 1377.07 1502.98C1437.81 1455.64 1487.59 1469.02 1526.4 1543.13C1593.76 1503.85 1643.54 1525.3 1675.73 1607.47V1600Z" fill="#F5487F"/>
</g>
</svg>
