<svg width="20" height="20" viewBox="0 0 20 20" fill="none" xmlns="http://www.w3.org/2000/svg">
<path d="M9.99998 13.3333C11.0416 13.3333 11.9272 12.9689 12.6566 12.24C13.3855 11.5106 13.75 10.625 13.75 9.58334C13.75 8.54167 13.3855 7.65611 12.6566 6.92667C11.9272 6.19778 11.0416 5.83334 9.99998 5.83334C8.95831 5.83334 8.07276 6.19778 7.34331 6.92667C6.61442 7.65611 6.24998 8.54167 6.24998 9.58334C6.24998 10.625 6.61442 11.5106 7.34331 12.24C8.07276 12.9689 8.95831 13.3333 9.99998 13.3333ZM9.99998 11.8333C9.37498 11.8333 8.84387 11.6144 8.40665 11.1767C7.96887 10.7394 7.74998 10.2083 7.74998 9.58334C7.74998 8.95834 7.96887 8.42695 8.40665 7.98917C8.84387 7.55195 9.37498 7.33334 9.99998 7.33334C10.625 7.33334 11.1564 7.55195 11.5941 7.98917C12.0314 8.42695 12.25 8.95834 12.25 9.58334C12.25 10.2083 12.0314 10.7394 11.5941 11.1767C11.1564 11.6144 10.625 11.8333 9.99998 11.8333ZM9.99998 15.8333C7.9722 15.8333 6.12498 15.2672 4.45831 14.135C2.79165 13.0033 1.58331 11.4861 0.833313 9.58334C1.58331 7.68056 2.79165 6.16306 4.45831 5.03084C6.12498 3.89917 7.9722 3.33334 9.99998 3.33334C12.0278 3.33334 13.875 3.89917 15.5416 5.03084C17.2083 6.16306 18.4166 7.68056 19.1666 9.58334C18.4166 11.4861 17.2083 13.0033 15.5416 14.135C13.875 15.2672 12.0278 15.8333 9.99998 15.8333ZM9.99998 14.1667C11.5694 14.1667 13.0105 13.7533 14.3233 12.9267C15.6355 12.1006 16.6389 10.9861 17.3333 9.58334C16.6389 8.18056 15.6355 7.06584 14.3233 6.23917C13.0105 5.41306 11.5694 5 9.99998 5C8.43054 5 6.98942 5.41306 5.67665 6.23917C4.36442 7.06584 3.36109 8.18056 2.66665 9.58334C3.36109 10.9861 4.36442 12.1006 5.67665 12.9267C6.98942 13.7533 8.43054 14.1667 9.99998 14.1667Z" fill="black" fill-opacity="0.8"/>
</svg>
